<mxfile host="app.diagrams.net">
  <diagram name="Diagrama de Despliegue - Jacquin Academia Musical" id="deployment1">
    <mxGraphModel dx="1000" dy="800" grid="1" gridSize="10" guides="1" tooltips="1" connect="1" arrows="1">
      <root>
        <mxCell id="0"/>
        <mxCell id="1" parent="0"/>

        <!-- Cliente Web -->
        <mxCell id="2" value="Cliente Web
(Navegador)
[Estudiantes, Profesores, Usuarios]" style="swimlane;fillColor=#DAE8FC;" vertex="1" parent="1">
          <mxGeometry x="40" y="60" width="180" height="100" as="geometry"/>
        </mxCell>

        <!-- Servidor Web -->
        <mxCell id="3" value="Servidor Web / Aplicativo
[Backend Python/Java]" style="swimlane;fillColor=#E1D5E7;" vertex="1" parent="1">
          <mxGeometry x="260" y="60" width="200" height="100" as="geometry"/>
        </mxCell>
        <mxCell id="6" style="endArrow=block;" edge="1" parent="1" source="2" target="3">
          <mxGeometry relative="1" as="geometry"/>
        </mxCell>

        <!-- Servidor de Base de Datos -->
        <mxCell id="4" value="Servidor Base de Datos
[MySQL/PostgreSQL]" style="swimlane;fillColor=#D5E8D4;" vertex="1" parent="1">
          <mxGeometry x="500" y="60" width="200" height="100" as="geometry"/>
        </mxCell>
        <mxCell id="7" style="endArrow=block;" edge="1" parent="1" source="3" target="4">
          <mxGeometry relative="1" as="geometry"/>
        </mxCell>

        <!-- Servidor de Archivos -->
        <mxCell id="5" value="Servidor de Archivos
[Materiales DidÃ¡cticos]" style="swimlane;fillColor=#FFE6CC;" vertex="1" parent="1">
          <mxGeometry x="260" y="200" width="200" height="80" as="geometry"/>
        </mxCell>
        <mxCell id="8" style="endArrow=block;dashed=1;" edge="1" parent="1" source="3" target="5">
          <mxGeometry relative="1" as="geometry"/>
        </mxCell>

        <!-- Servidor de Correo -->
        <mxCell id="9" value="Servidor de Correo / Notificaciones
[SMTP / API]" style="swimlane;fillColor=#F8CECC;" vertex="1" parent="1">
          <mxGeometry x="500" y="200" width="200" height="80" as="geometry"/>
        </mxCell>
        <mxCell id="10" style="endArrow=block;dashed=1;" edge="1" parent="1" source="3" target="9">
          <mxGeometry relative="1" as="geometry"/>
        </mxCell>

        <!-- Firewall -->
        <mxCell id="11" value="Firewall / Gateway
[Seguridad de red]" style="swimlane;fillColor=#FFF2CC;" vertex="1" parent="1">
          <mxGeometry x="140" y="320" width="200" height="80" as="geometry"/>
        </mxCell>
        <mxCell id="12" style="endArrow=block;" edge="1" parent="1" source="11" target="3">
          <mxGeometry relative="1" as="geometry"/>
        </mxCell>

      </root>
    </mxGraphModel>
  </diagram>
</mxfile>
